<svg id="Ebene_1" data-name="Ebene 1" xmlns="http://www.w3.org/2000/svg" viewBox="0 0 1000 185"><path d="M133.32276,54.46a4.53624,4.53624,0,0,1,1.624,2.42871h-1.34424a3.28584,3.28584,0,0,0-1.21777-1.56055,3.52766,3.52766,0,0,0-2.05811-.581,3.168,3.168,0,0,0-2.9331,1.8125,4.50651,4.50651,0,0,0-.44092,2.05078,4.424,4.424,0,0,0,.44092,2.03027,3.18023,3.18023,0,0,0,2.9331,1.80665,3.53475,3.53475,0,0,0,2.05811-.58106,3.293,3.293,0,0,0,1.21777-1.56152h1.34424a4.529,4.529,0,0,1-1.624,2.42871,4.80606,4.80606,0,0,1-2.98194.88965,4.67609,4.67609,0,0,1-2.45019-.6377,4.3849,4.3849,0,0,1-1.65918-1.77734,5.53532,5.53532,0,0,1-.59473-2.59766,5.60472,5.60472,0,0,1,.59473-2.61719,4.38126,4.38126,0,0,1,1.65918-1.78515,4.67554,4.67554,0,0,1,2.45019-.63672A4.80566,4.80566,0,0,1,133.32276,54.46Z"/><path d="M142.87012,56.58789a3.45081,3.45081,0,0,1,.82617,2.48535v4.46582h-1.27392V59.18457a2.45611,2.45611,0,0,0-.5879-1.76367,2.10123,2.10123,0,0,0-1.59619-.61621,2.18432,2.18432,0,0,0-1.68017.67871,2.8146,2.8146,0,0,0-.62989,1.98144v4.07422H136.6543V53.17871h1.27392v4.49414a2.6207,2.6207,0,0,1,1.043-1.44238,3.02464,3.02464,0,0,1,1.729-.50391A2.86916,2.86916,0,0,1,142.87012,56.58789Z"/><path d="M150.70313,56.31445a2.9211,2.9211,0,0,1,1.085,1.498v-1.96h1.27441v7.68652h-1.27441v-1.96a2.91712,2.91712,0,0,1-1.085,1.49805,3.16016,3.16016,0,0,1-1.897.55957,3.48223,3.48223,0,0,1-1.81982-.47559,3.29012,3.29012,0,0,1-1.25293-1.36523,4.53206,4.53206,0,0,1-.45508-2.09278,4.57957,4.57957,0,0,1,.45508-2.10058,3.28517,3.28517,0,0,1,1.25293-1.37207,3.49145,3.49145,0,0,1,1.81982-.47559A3.16023,3.16023,0,0,1,150.70313,56.31445Zm-3.416,1.32325a3.36893,3.36893,0,0,0,0,4.12988,2.46521,2.46521,0,0,0,1.8833.749,2.61459,2.61459,0,0,0,1.35108-.34961,2.435,2.435,0,0,0,.93066-.9873,3.11846,3.11846,0,0,0,.33594-1.47657,3.1617,3.1617,0,0,0-.33594-1.48437,2.387,2.387,0,0,0-.93066-.9873,2.65839,2.65839,0,0,0-1.35108-.34278A2.46869,2.46869,0,0,0,147.28711,57.6377Z"/><path d="M161.30811,56.58789a3.45081,3.45081,0,0,1,.82617,2.48535v4.46582h-1.27393V59.18457a2.4561,2.4561,0,0,0-.58789-1.76367,2.10123,2.10123,0,0,0-1.59619-.61621,2.18432,2.18432,0,0,0-1.68017.67871,2.81455,2.81455,0,0,0-.62989,1.98144v4.07422h-1.27392V55.85254h1.27392v1.82031a2.6207,2.6207,0,0,1,1.043-1.44238,3.02462,3.02462,0,0,1,1.729-.50391A2.86916,2.86916,0,0,1,161.30811,56.58789Z"/><path d="M169.14112,56.31445a2.9211,2.9211,0,0,1,1.085,1.498v-1.96h1.27441V63.665a3.89888,3.89888,0,0,1-.44824,1.88965,3.21743,3.21743,0,0,1-1.25977,1.28808,3.76057,3.76057,0,0,1-1.89013.46192,4.05962,4.05962,0,0,1-2.53418-.749,3.30488,3.30488,0,0,1-1.2461-2.02246h1.26026a2.18137,2.18137,0,0,0,.84716,1.21094,2.7096,2.7096,0,0,0,1.60254.44043,2.35177,2.35177,0,0,0,1.71534-.665,2.47706,2.47706,0,0,0,.67871-1.85449V61.5791a2.91712,2.91712,0,0,1-1.085,1.49805,3.16018,3.16018,0,0,1-1.897.55957,3.48223,3.48223,0,0,1-1.81982-.47559,3.29012,3.29012,0,0,1-1.25293-1.36523,4.53206,4.53206,0,0,1-.45508-2.09278,4.57957,4.57957,0,0,1,.45508-2.10058,3.28517,3.28517,0,0,1,1.25293-1.37207,3.49145,3.49145,0,0,1,1.81982-.47559A3.16025,3.16025,0,0,1,169.14112,56.31445Zm-3.416,1.32325a3.36893,3.36893,0,0,0,0,4.12988,2.46521,2.46521,0,0,0,1.8833.749,2.61453,2.61453,0,0,0,1.35107-.34961,2.43492,2.43492,0,0,0,.93067-.9873,3.11846,3.11846,0,0,0,.33594-1.47657,3.1617,3.1617,0,0,0-.33594-1.48437,2.387,2.387,0,0,0-.93067-.9873,2.65833,2.65833,0,0,0-1.35107-.34278A2.46869,2.46869,0,0,0,165.7251,57.6377Z"/><path d="M180.54444,59.96875h-6.146a2.68952,2.68952,0,0,0,.749,1.97363,2.44,2.44,0,0,0,1.729.65821,2.50037,2.50037,0,0,0,1.54687-.46875,1.942,1.942,0,0,0,.76319-1.25293h1.35791a3.21126,3.21126,0,0,1-1.876,2.4082,4.151,4.151,0,0,1-1.73633.34961,3.95687,3.95687,0,0,1-1.96-.47559,3.36532,3.36532,0,0,1-1.33691-1.36523,4.3212,4.3212,0,0,1-.48291-2.09278,4.36612,4.36612,0,0,1,.48291-2.10058,3.35887,3.35887,0,0,1,1.33691-1.37207,3.96735,3.96735,0,0,1,1.96-.47559,3.8787,3.8787,0,0,1,1.95313.47559,3.27766,3.27766,0,0,1,1.27392,1.27441,3.58672,3.58672,0,0,1,.44092,1.76367A3.81527,3.81527,0,0,1,180.54444,59.96875Zm-1.51221-2.044a2.04632,2.04632,0,0,0-.88184-.85351,2.67541,2.67541,0,0,0-1.21826-.28027,2.52208,2.52208,0,0,0-1.76367.65039,2.62411,2.62411,0,0,0-.77,1.91113h4.91406A2.61409,2.61409,0,0,0,179.03223,57.9248Z"/><path d="M193.438,61.208a4.12638,4.12638,0,0,1-1.771,1.72168,6.00254,6.00254,0,0,1-2.80664.60937h-3.13623V53.669h3.13623a6.126,6.126,0,0,1,2.80664.59472,4.043,4.043,0,0,1,1.771,1.708,5.99386,5.99386,0,0,1,0,5.23633Zm-1.72168.18847a3.72517,3.72517,0,0,0,1.022-2.7998A3.76275,3.76275,0,0,0,191.72315,55.79a4.047,4.047,0,0,0-2.96094-1.001h-1.76416v7.60156h1.76416A4.06643,4.06643,0,0,0,191.71631,61.39648Z"/><path d="M200.80908,56.31445a2.921,2.921,0,0,1,1.085,1.498v-1.96h1.27442v7.68652H201.894v-1.96a2.917,2.917,0,0,1-1.085,1.49805,3.16013,3.16013,0,0,1-1.897.55957,3.48223,3.48223,0,0,1-1.81982-.47559,3.29012,3.29012,0,0,1-1.25293-1.36523,4.53206,4.53206,0,0,1-.45508-2.09278,4.57957,4.57957,0,0,1,.45508-2.10058,3.28517,3.28517,0,0,1,1.25293-1.37207,3.49145,3.49145,0,0,1,1.81982-.47559A3.1602,3.1602,0,0,1,200.80908,56.31445Zm-3.416,1.32325a3.36893,3.36893,0,0,0,0,4.12988,2.46521,2.46521,0,0,0,1.8833.749,2.61453,2.61453,0,0,0,1.35107-.34961,2.435,2.435,0,0,0,.93067-.9873,3.11846,3.11846,0,0,0,.33593-1.47657,3.1617,3.1617,0,0,0-.33593-1.48437,2.387,2.387,0,0,0-.93067-.9873,2.65833,2.65833,0,0,0-1.35107-.34278A2.46869,2.46869,0,0,0,197.39307,57.6377Z"/><path d="M208.86621,62.419v1.12011h-.95215a2.44123,2.44123,0,0,1-1.75683-.56054,2.52825,2.52825,0,0,1-.58106-1.876V56.959h-1.14795V55.85254h1.14795v-1.918h1.28809v1.918h1.98779V56.959h-1.98779v4.17188a1.43411,1.43411,0,0,0,.273,1.01465,1.31135,1.31135,0,0,0,.94482.27344Z"/><path d="M215.4668,56.31445a2.921,2.921,0,0,1,1.085,1.498v-1.96h1.27441v7.68652h-1.27441v-1.96a2.91706,2.91706,0,0,1-1.085,1.49805,3.16015,3.16015,0,0,1-1.897.55957,3.48224,3.48224,0,0,1-1.81983-.47559,3.29018,3.29018,0,0,1-1.25293-1.36523,4.53206,4.53206,0,0,1-.45508-2.09278,4.57957,4.57957,0,0,1,.45508-2.10058A3.28524,3.28524,0,0,1,211.75,56.23047a3.49146,3.49146,0,0,1,1.81983-.47559A3.16022,3.16022,0,0,1,215.4668,56.31445Zm-3.416,1.32325a3.36893,3.36893,0,0,0,0,4.12988,2.46521,2.46521,0,0,0,1.8833.749,2.61457,2.61457,0,0,0,1.35108-.34961,2.435,2.435,0,0,0,.93066-.9873,3.11846,3.11846,0,0,0,.33594-1.47657,3.1617,3.1617,0,0,0-.33594-1.48437,2.387,2.387,0,0,0-.93066-.9873,2.65836,2.65836,0,0,0-1.35108-.34278A2.46869,2.46869,0,0,0,212.05078,57.6377Z"/><path d="M230.66406,54.46a4.5362,4.5362,0,0,1,1.624,2.42871h-1.34424a3.2859,3.2859,0,0,0-1.21777-1.56055,3.52766,3.52766,0,0,0-2.05811-.581,3.168,3.168,0,0,0-2.9331,1.8125,4.50651,4.50651,0,0,0-.44092,2.05078,4.424,4.424,0,0,0,.44092,2.03027,3.18023,3.18023,0,0,0,2.9331,1.80665,3.53475,3.53475,0,0,0,2.05811-.58106,3.293,3.293,0,0,0,1.21777-1.56152h1.34424a4.52894,4.52894,0,0,1-1.624,2.42871,4.806,4.806,0,0,1-2.98193.88965,4.67606,4.67606,0,0,1-2.45019-.6377,4.3849,4.3849,0,0,1-1.65918-1.77734,5.53532,5.53532,0,0,1-.59473-2.59766,5.60472,5.60472,0,0,1,.59473-2.61719,4.38126,4.38126,0,0,1,1.65918-1.78515,4.67552,4.67552,0,0,1,2.45019-.63672A4.80563,4.80563,0,0,1,230.66406,54.46Z"/><path d="M239.04248,56.31445a2.921,2.921,0,0,1,1.085,1.498v-1.96h1.27442v7.68652h-1.27442v-1.96a2.917,2.917,0,0,1-1.085,1.49805,3.16013,3.16013,0,0,1-1.897.55957,3.4822,3.4822,0,0,1-1.81982-.47559,3.29012,3.29012,0,0,1-1.25293-1.36523,4.53193,4.53193,0,0,1-.45508-2.09278,4.57945,4.57945,0,0,1,.45508-2.10058,3.28517,3.28517,0,0,1,1.25293-1.37207,3.49143,3.49143,0,0,1,1.81982-.47559A3.1602,3.1602,0,0,1,239.04248,56.31445Zm-3.416,1.32325a3.36893,3.36893,0,0,0,0,4.12988,2.46521,2.46521,0,0,0,1.8833.749,2.61456,2.61456,0,0,0,1.35107-.34961,2.435,2.435,0,0,0,.93067-.9873,3.11846,3.11846,0,0,0,.33593-1.47657,3.1617,3.1617,0,0,0-.33593-1.48437,2.387,2.387,0,0,0-.93067-.9873,2.65835,2.65835,0,0,0-1.35107-.34278A2.46869,2.46869,0,0,0,235.62647,57.6377Z"/><path d="M249.49365,56.23047a3.28517,3.28517,0,0,1,1.25293,1.37207,4.58571,4.58571,0,0,1,.45508,2.10058,4.5381,4.5381,0,0,1-.45508,2.09278,3.29012,3.29012,0,0,1-1.25293,1.36523,3.48344,3.48344,0,0,1-1.81982.47559,3.123,3.123,0,0,1-1.897-.56738,2.88347,2.88347,0,0,1-1.07129-1.49024v5.59961h-1.27393V55.85254h1.27393v1.96a2.88348,2.88348,0,0,1,1.07129-1.49023,3.123,3.123,0,0,1,1.897-.56739A3.49267,3.49267,0,0,1,249.49365,56.23047Zm-3.52783,1.001a2.37308,2.37308,0,0,0-.938.9873,3.1617,3.1617,0,0,0-.33593,1.48437,3.11846,3.11846,0,0,0,.33593,1.47657,2.42022,2.42022,0,0,0,.938.9873,2.62186,2.62186,0,0,0,1.34375.34961,2.482,2.482,0,0,0,1.897-.749,3.36889,3.36889,0,0,0,0-4.12988,2.48546,2.48546,0,0,0-1.897-.749A2.66579,2.66579,0,0,0,245.96582,57.23145Z"/><path d="M256.53565,62.419v1.12011h-.95215a2.44125,2.44125,0,0,1-1.75684-.56054,2.52829,2.52829,0,0,1-.58105-1.876V56.959h-1.148V55.85254h1.148v-1.918h1.28808v1.918h1.9878V56.959h-1.9878v4.17188a1.43411,1.43411,0,0,0,.27295,1.01465,1.31136,1.31136,0,0,0,.94483.27344Z"/><path d="M264.92139,55.85254v7.68652h-1.27393V61.73242a2.58609,2.58609,0,0,1-1.043,1.43555,3.0824,3.0824,0,0,1-1.74316.49707,2.85066,2.85066,0,0,1-2.15576-.86133,3.42885,3.42885,0,0,1-.82617-2.4707V55.85254h1.27392V60.207a2.48082,2.48082,0,0,0,.58789,1.77051,2.08784,2.08784,0,0,0,1.59619.623,2.18094,2.18094,0,0,0,1.68018-.67871,2.81464,2.81464,0,0,0,.62988-1.98145V55.85254Z"/><path d="M269.34522,56.168a3.28822,3.28822,0,0,1,1.73632-.44141v1.38672h-.39208a2.71914,2.71914,0,0,0-1.76417.55274,2.21318,2.21318,0,0,0-.686,1.82714v4.0459h-1.27393V55.85254h1.27393v1.55469A2.82545,2.82545,0,0,1,269.34522,56.168Z"/><path d="M279.35547,59.96875h-6.146a2.68956,2.68956,0,0,0,.749,1.97363,2.44,2.44,0,0,0,1.729.65821,2.5004,2.5004,0,0,0,1.54688-.46875,1.942,1.942,0,0,0,.76318-1.25293h1.35791a3.21126,3.21126,0,0,1-1.876,2.4082,4.151,4.151,0,0,1-1.73632.34961,3.95682,3.95682,0,0,1-1.96-.47559,3.36541,3.36541,0,0,1-1.33692-1.36523,4.3212,4.3212,0,0,1-.48291-2.09278,4.36612,4.36612,0,0,1,.48291-2.10058,3.359,3.359,0,0,1,1.33692-1.37207,3.96729,3.96729,0,0,1,1.96-.47559,3.87864,3.87864,0,0,1,1.95312.47559,3.27768,3.27768,0,0,1,1.27393,1.27441,3.58682,3.58682,0,0,1,.44091,1.76367A3.81439,3.81439,0,0,1,279.35547,59.96875Zm-1.51221-2.044a2.0463,2.0463,0,0,0-.88183-.85351,2.67547,2.67547,0,0,0-1.21826-.28027,2.52212,2.52212,0,0,0-1.76368.65039,2.62415,2.62415,0,0,0-.77,1.91113h4.91407A2.614,2.614,0,0,0,277.84326,57.9248Z"/><circle cx="948.4375" cy="74.26953" r="51.5" fill="#585b88"/><polygon points="940.506 50.714 937.271 56.846 937.271 60.584 935.984 60.584 935.984 56.846 932.736 50.714 934.221 50.714 936.643 55.488 939.051 50.714 940.506 50.714" fill="#fff"/><path d="M947.26074,53.27588a3.4112,3.4112,0,0,1,1.37207,1.37207,4.256,4.256,0,0,1,.49707,2.10059,4.21235,4.21235,0,0,1-.49707,2.09277,3.41842,3.41842,0,0,1-1.37207,1.36523,4.36339,4.36339,0,0,1-3.96191,0,3.45943,3.45943,0,0,1-1.37891-1.36523,4.17344,4.17344,0,0,1-.5039-2.09277,4.21656,4.21656,0,0,1,.5039-2.10059,3.45182,3.45182,0,0,1,1.37891-1.37207,4.36339,4.36339,0,0,1,3.96191,0Zm-3.24707.95215a2.30882,2.30882,0,0,0-.93847.94531,3.61748,3.61748,0,0,0,0,3.13574,2.30289,2.30289,0,0,0,.93847.94531,2.76139,2.76139,0,0,0,2.53321,0,2.31244,2.31244,0,0,0,.9375-.94531,3.61748,3.61748,0,0,0,0-3.13574,2.31842,2.31842,0,0,0-.9375-.94531,2.76139,2.76139,0,0,0-2.53321,0Z" fill="#fff"/><path d="M957.62793,52.898v7.68652h-1.27441V58.77783a2.577,2.577,0,0,1-1.043,1.43555,3.07922,3.07922,0,0,1-1.74219.49707,2.8525,2.8525,0,0,1-2.15625-.86133,3.42885,3.42885,0,0,1-.82617-2.4707V52.898h1.27344v4.35449a2.48517,2.48517,0,0,0,.58789,1.77051,2.08966,2.08966,0,0,0,1.59668.623,2.18273,2.18273,0,0,0,1.68066-.67871,2.81441,2.81441,0,0,0,.62891-1.98145V52.898Z" fill="#fff"/><path d="M962.05176,53.21338a3.287,3.287,0,0,1,1.73633-.44141v1.38672h-.3916a2.7205,2.7205,0,0,0-1.76465.55274,2.21183,2.21183,0,0,0-.68653,1.82714v4.0459h-1.27343V52.898h1.27343v1.55469A2.82656,2.82656,0,0,1,962.05176,53.21338Z" fill="#fff"/><path d="M939.918,75.05322a4.12759,4.12759,0,0,1-1.77148,1.72168,6.0026,6.0026,0,0,1-2.80664.60938H932.2041V67.51416h3.13575a6.126,6.126,0,0,1,2.80664.59473,4.04416,4.04416,0,0,1,1.77148,1.708,5.99825,5.99825,0,0,1,0,5.23633Zm-1.72168.18848a4.36514,4.36514,0,0,0,.00684-5.60645,4.04778,4.04778,0,0,0-2.96094-1.001h-1.76367v7.60156h1.76367A4.06641,4.06641,0,0,0,938.19629,75.2417Z" fill="#fff"/><path d="M947.28906,70.15967a2.92374,2.92374,0,0,1,1.085,1.498v-1.96h1.27441v7.68653H948.374v-1.96a2.91975,2.91975,0,0,1-1.085,1.498,3.15861,3.15861,0,0,1-1.89648.55957,3.48161,3.48161,0,0,1-1.82031-.47558,3.29334,3.29334,0,0,1-1.25293-1.36524,4.532,4.532,0,0,1-.45508-2.09277,4.57962,4.57962,0,0,1,.45508-2.10059,3.28841,3.28841,0,0,1,1.25293-1.37207,3.49082,3.49082,0,0,1,1.82031-.47558A3.15861,3.15861,0,0,1,947.28906,70.15967Zm-3.416,1.32324a3.36893,3.36893,0,0,0,0,4.12988,2.46486,2.46486,0,0,0,1.88281.749,2.61506,2.61506,0,0,0,1.35156-.34961,2.43489,2.43489,0,0,0,.93067-.98731,3.12424,3.12424,0,0,0,.33594-1.47656,3.16764,3.16764,0,0,0-.33594-1.48438,2.387,2.387,0,0,0-.93067-.9873,2.65886,2.65886,0,0,0-1.35156-.34277A2.46836,2.46836,0,0,0,943.87305,71.48291Z" fill="#fff"/><path d="M955.34571,76.26416v1.12012h-.95118a2.44382,2.44382,0,0,1-1.75781-.56055,2.53031,2.53031,0,0,1-.58008-1.876V70.8042h-1.14843V69.69775h1.14843v-1.918h1.28711v1.918H955.332V70.8042h-1.98828v4.17187a1.43631,1.43631,0,0,0,.27344,1.01465,1.31108,1.31108,0,0,0,.94531.27344Z" fill="#fff"/><path d="M961.94727,70.15967a2.922,2.922,0,0,1,1.084,1.498v-1.96h1.27539v7.68653h-1.27539v-1.96a2.918,2.918,0,0,1-1.084,1.498,3.16167,3.16167,0,0,1-1.89746.55957,3.48056,3.48056,0,0,1-1.81934-.47558,3.28923,3.28923,0,0,1-1.25391-1.36524,4.54437,4.54437,0,0,1-.45507-2.09277,4.59215,4.59215,0,0,1,.45507-2.10059,3.28431,3.28431,0,0,1,1.25391-1.37207,3.48978,3.48978,0,0,1,1.81934-.47558A3.16167,3.16167,0,0,1,961.94727,70.15967Zm-3.416,1.32324a3.36893,3.36893,0,0,0,0,4.12988,2.46341,2.46341,0,0,0,1.88281.749,2.61761,2.61761,0,0,0,1.35157-.34961,2.42622,2.42622,0,0,0,.92968-.98731,3.11263,3.11263,0,0,0,.33594-1.47656,3.15581,3.15581,0,0,0-.33594-1.48438,2.37863,2.37863,0,0,0-.92968-.9873,2.66146,2.66146,0,0,0-1.35157-.34277A2.46691,2.46691,0,0,0,958.53125,71.48291Z" fill="#fff"/><path d="M923.61524,90.2085v3.97558H922.3418V84.314h3.13574a3.58427,3.58427,0,0,1,2.53418.791,2.83034,2.83034,0,0,1,.83984,2.16309,2.752,2.752,0,0,1-.86816,2.16308,3.63624,3.63624,0,0,1-2.50586.77735Zm3.42382-1.55371a2.16894,2.16894,0,0,0,0-2.794,2.39541,2.39541,0,0,0-1.67382-.48242h-1.75V89.144h1.75A2.371,2.371,0,0,0,927.03906,88.65479Z" fill="#fff"/><path d="M930.34961,83.67725a1.02343,1.02343,0,0,1,1.25977,0,.79349.79349,0,0,1,0,1.13379,1.01983,1.01983,0,0,1-1.25977,0,.79349.79349,0,0,1,0-1.13379Zm1.25977,2.82129v7.68554h-1.27344V86.49854Z" fill="#fff"/><path d="M939.71485,86.87646a3.27841,3.27841,0,0,1,1.2539,1.37208,4.58774,4.58774,0,0,1,.45508,2.0996,4.54144,4.54144,0,0,1-.45508,2.09278,3.28912,3.28912,0,0,1-1.2539,1.36523,3.48109,3.48109,0,0,1-1.81934.47656,3.131,3.131,0,0,1-1.89746-.56738,2.87757,2.87757,0,0,1-1.07031-1.49121v5.60059h-1.27442V86.49854h1.27442v1.96a2.87754,2.87754,0,0,1,1.07031-1.49121,3.131,3.131,0,0,1,1.89746-.56739A3.48119,3.48119,0,0,1,939.71485,86.87646Zm-3.52735,1.001a2.35452,2.35452,0,0,0-.9375.98731,3.15173,3.15173,0,0,0-.33594,1.48339,3.11389,3.11389,0,0,0,.33594,1.47754,2.40418,2.40418,0,0,0,.9375.98633,2.62256,2.62256,0,0,0,1.34375.35059,2.4844,2.4844,0,0,0,1.89649-.749,3.36893,3.36893,0,0,0,0-4.12988,2.48091,2.48091,0,0,0-1.89649-.749A2.66589,2.66589,0,0,0,936.1875,87.87744Z" fill="#fff"/><path d="M950.10352,90.61475H943.957a2.68969,2.68969,0,0,0,.75,1.97363,2.4423,2.4423,0,0,0,1.72852.6582,2.4967,2.4967,0,0,0,1.54687-.46972,1.9403,1.9403,0,0,0,.76368-1.25293h1.35742a3.20689,3.20689,0,0,1-1.876,2.4082,4.15283,4.15283,0,0,1-1.73633.35058,3.95732,3.95732,0,0,1-1.96-.47656,3.36538,3.36538,0,0,1-1.33691-1.36523,4.32415,4.32415,0,0,1-.4834-2.09278,4.36785,4.36785,0,0,1,.4834-2.0996,3.35309,3.35309,0,0,1,1.33691-1.37208,3.95742,3.95742,0,0,1,1.96-.47656,3.86909,3.86909,0,0,1,1.95313.47656,3.28636,3.28636,0,0,1,1.27441,1.27344,3.598,3.598,0,0,1,.44043,1.76465A3.82188,3.82188,0,0,1,950.10352,90.61475ZM948.5918,88.5708a2.05082,2.05082,0,0,0-.88281-.85449,2.68608,2.68608,0,0,0-1.21778-.28027,2.52121,2.52121,0,0,0-1.76367.65136,2.62468,2.62468,0,0,0-.77051,1.91114h4.91407A2.60981,2.60981,0,0,0,948.5918,88.5708Z" fill="#fff"/><rect x="951.8252" y="83.82471" width="1.27441" height="10.35938" fill="#fff"/><path d="M955.15723,83.67725a1.02341,1.02341,0,0,1,1.25976,0,.79347.79347,0,0,1,0,1.13379,1.01982,1.01982,0,0,1-1.25976,0,.79349.79349,0,0,1,0-1.13379Zm1.25976,2.82129v7.68554h-1.27441V86.49854Z" fill="#fff"/><path d="M964.67676,87.23291a3.45081,3.45081,0,0,1,.82617,2.48535v4.46582h-1.27441V89.83057a2.45488,2.45488,0,0,0-.58789-1.76465,2.10235,2.10235,0,0,0-1.59571-.61524,2.17914,2.17914,0,0,0-1.67968.67871,2.81382,2.81382,0,0,0-.63086,1.98047v4.07422h-1.27344V86.49854h1.27344v1.81933a2.62531,2.62531,0,0,1,1.043-1.44141,3.02734,3.02734,0,0,1,1.72949-.5039A2.87278,2.87278,0,0,1,964.67676,87.23291Z" fill="#fff"/><path d="M974.47656,90.61475h-6.1455a2.69315,2.69315,0,0,0,.749,1.97363,2.44228,2.44228,0,0,0,1.72852.6582,2.49278,2.49278,0,0,0,1.54687-.46972,1.93638,1.93638,0,0,0,.76367-1.25293h1.35742a3.20845,3.20845,0,0,1-1.875,2.4082,4.15281,4.15281,0,0,1-1.73632.35058,3.96108,3.96108,0,0,1-1.96094-.47656,3.36923,3.36923,0,0,1-1.33594-1.36523,4.31323,4.31323,0,0,1-.4834-2.09278,4.35677,4.35677,0,0,1,.4834-2.0996,3.3569,3.3569,0,0,1,1.33594-1.37208,3.96118,3.96118,0,0,1,1.96094-.47656,3.87159,3.87159,0,0,1,1.95312.47656,3.28379,3.28379,0,0,1,1.27344,1.27344,3.58824,3.58824,0,0,1,.44141,1.76465A3.81394,3.81394,0,0,1,974.47656,90.61475Zm-1.51171-2.04395a2.04864,2.04864,0,0,0-.88184-.85449,2.689,2.689,0,0,0-1.21777-.28027,2.52122,2.52122,0,0,0-1.76368.65136,2.6208,2.6208,0,0,0-.7705,1.91114h4.91406A2.60969,2.60969,0,0,0,972.96485,88.5708Z" fill="#fff"/><polyline points="103.938 76.02 293.174 76.02 293.174 73.02 103.938 73.02" fill="#2f2e41"/><polyline points="290.986 81.999 303.938 74.52 290.986 67.04 290.986 81.999" fill="#2f2e41"/><polyline points="695.938 76.02 885.174 76.02 885.174 73.02 695.938 73.02" fill="#2f2e41"/><polygon points="882.985 81.999 895.938 74.52 882.985 67.04 882.985 81.999" fill="#2f2e41"/><path d="M688.9386,1.01959H308.9364a5.999,5.999,0,0,0-5.9989,5.9989V73.942l1.00012.57751-1.00012.57752v65.92346a5.99907,5.99907,0,0,0,5.9989,5.99914H688.9386a5.99909,5.99909,0,0,0,5.9989-5.99914V7.01849a5.999,5.999,0,0,0-5.9989-5.9989" fill="#e5f4e7"/><polyline points="302.938 73.942 302.938 75.097 303.938 74.52 302.938 73.942" fill="#344245"/><rect x="329.50232" y="31.66174" width="49.87036" height="85.21558" fill="#4fb35d"/><rect x="349.51636" y="94.13525" width="9.87012" height="1.27441" fill="#fff"/><polygon points="359.386 84.42 359.386 85.694 351.589 90.818 359.386 90.818 359.386 92.092 349.516 92.092 349.516 90.818 357.328 85.694 349.516 85.694 349.516 84.42 359.386 84.42" fill="#fff"/><path d="M358.12671,76.46729a2.539,2.539,0,0,1,.98,1.02246,3.4748,3.4748,0,0,1,.37793,1.69433,4.06418,4.06418,0,0,1-.35693,1.74219,3.09615,3.09615,0,0,1-.98,1.21875,2.78171,2.78171,0,0,1-1.42139.52539V81.312a1.92871,1.92871,0,0,0,.81934-.28711,1.90192,1.90192,0,0,0,.65771-.70019,2.18491,2.18491,0,0,0,.25928-1.09864,1.74393,1.74393,0,0,0-.44824-1.28808,1.553,1.553,0,0,0-1.14795-.44824,1.47471,1.47471,0,0,0-.98.31543,2.23247,2.23247,0,0,0-.59522.77734,10.53748,10.53748,0,0,0-.46875,1.25977,12.68974,12.68974,0,0,1-.58105,1.50488,2.56958,2.56958,0,0,1-.81885.96582,2.39169,2.39169,0,0,1-1.4419.39844,2.4864,2.4864,0,0,1-1.35839-.3711,2.42712,2.42712,0,0,1-.90967-1.06347,3.83226,3.83226,0,0,1-.32227-1.63086,3.50943,3.50943,0,0,1,.707-2.30957,2.70468,2.70468,0,0,1,1.79883-.99414v1.37109a1.85778,1.85778,0,0,0-1.03564.60254,1.89676,1.89676,0,0,0-.44824,1.33008,1.82022,1.82022,0,0,0,.39892,1.23144,1.5982,1.5982,0,0,0,2.05811.16211,2.09772,2.09772,0,0,0,.56006-.75,12.0824,12.0824,0,0,0,.45507-1.23144,12.5821,12.5821,0,0,1,.58789-1.53321,2.59811,2.59811,0,0,1,.84717-.9873,2.5403,2.5403,0,0,1,1.50488-.40625A2.64278,2.64278,0,0,1,358.12671,76.46729Z" fill="#fff"/><polygon points="350.552 73.15 353.927 73.15 353.927 69.398 354.906 69.398 354.906 73.15 358.35 73.15 358.35 68.978 359.386 68.978 359.386 74.424 349.516 74.424 349.516 68.978 350.552 68.978 350.552 73.15" fill="#fff"/><path d="M359.38648,62.104l-4.03223,2.57618v1.38574h4.03223v1.27441h-9.87012v-3.248a3.51435,3.51435,0,0,1,.80518-2.52051,2.82189,2.82189,0,0,1,2.13476-.83985,2.759,2.759,0,0,1,1.939.67188,3.13535,3.13535,0,0,1,.917,1.94629l4.07422-2.68848Zm-4.95606,3.96192V64.20361q0-2.16943-1.90381-2.16992-1.9043,0-1.90429,2.16992v1.86231Z" fill="#fff"/><polygon points="349.516 53.129 350.552 53.129 350.552 55.916 359.386 55.916 359.386 57.19 350.552 57.19 350.552 59.975 349.516 59.975 349.516 53.129" fill="#fff"/><rect x="426.50232" y="31.66174" width="49.87036" height="85.21558" fill="#4fb35d"/><rect x="446.51636" y="94.13525" width="9.87012" height="1.27441" fill="#fff"/><polygon points="456.386 84.42 456.386 85.694 448.589 90.818 456.386 90.818 456.386 92.092 446.516 92.092 446.516 90.818 454.328 85.694 446.516 85.694 446.516 84.42 456.386 84.42" fill="#fff"/><path d="M455.12671,76.46729a2.539,2.539,0,0,1,.98,1.02246,3.4748,3.4748,0,0,1,.37793,1.69433,4.06418,4.06418,0,0,1-.35693,1.74219,3.09615,3.09615,0,0,1-.98,1.21875,2.78171,2.78171,0,0,1-1.42139.52539V81.312a1.92871,1.92871,0,0,0,.81934-.28711,1.90192,1.90192,0,0,0,.65771-.70019,2.18491,2.18491,0,0,0,.25928-1.09864,1.74393,1.74393,0,0,0-.44824-1.28808,1.553,1.553,0,0,0-1.14795-.44824,1.47471,1.47471,0,0,0-.98.31543,2.23247,2.23247,0,0,0-.59522.77734,10.53748,10.53748,0,0,0-.46875,1.25977,12.68974,12.68974,0,0,1-.58105,1.50488,2.56958,2.56958,0,0,1-.81885.96582,2.39169,2.39169,0,0,1-1.4419.39844,2.4864,2.4864,0,0,1-1.35839-.3711,2.42712,2.42712,0,0,1-.90967-1.06347,3.83226,3.83226,0,0,1-.32227-1.63086,3.50943,3.50943,0,0,1,.707-2.30957,2.70468,2.70468,0,0,1,1.79883-.99414v1.37109a1.85778,1.85778,0,0,0-1.03564.60254,1.89676,1.89676,0,0,0-.44824,1.33008,1.82022,1.82022,0,0,0,.39892,1.23144,1.5982,1.5982,0,0,0,2.05811.16211,2.09772,2.09772,0,0,0,.56006-.75,12.0824,12.0824,0,0,0,.45507-1.23144,12.5821,12.5821,0,0,1,.58789-1.53321,2.59811,2.59811,0,0,1,.84717-.9873,2.5403,2.5403,0,0,1,1.50488-.40625A2.64278,2.64278,0,0,1,455.12671,76.46729Z" fill="#fff"/><polygon points="447.552 73.15 450.927 73.15 450.927 69.398 451.906 69.398 451.906 73.15 455.35 73.15 455.35 68.978 456.386 68.978 456.386 74.424 446.516 74.424 446.516 68.978 447.552 68.978 447.552 73.15" fill="#fff"/><path d="M456.38648,62.104l-4.03223,2.57618v1.38574h4.03223v1.27441h-9.87012v-3.248a3.51435,3.51435,0,0,1,.80518-2.52051,2.82189,2.82189,0,0,1,2.13476-.83985,2.759,2.759,0,0,1,1.939.67188,3.13535,3.13535,0,0,1,.917,1.94629l4.07422-2.68848Zm-4.95606,3.96192V64.20361q0-2.16943-1.90381-2.16992-1.9043,0-1.90429,2.16992v1.86231Z" fill="#fff"/><polygon points="446.516 53.129 447.552 53.129 447.552 55.916 456.386 55.916 456.386 57.19 447.552 57.19 447.552 59.975 446.516 59.975 446.516 53.129" fill="#fff"/><rect x="523.50232" y="31.66174" width="49.87036" height="85.21558" fill="#4fb35d"/><path d="M543.45313,97.68457H549.375a3.071,3.071,0,0,0,2.14942-.64453,2.30616,2.30616,0,0,0,.69336-1.77734,2.23432,2.23432,0,0,0-.7002-1.75,3.12494,3.12494,0,0,0-2.14258-.62989h-5.92187V91.6084H549.375a4.14733,4.14733,0,0,1,3.03125,1.00195,4.02747,4.02747,0,0,1,0,5.34766,4.151,4.151,0,0,1-3.03125,1h-5.92187Z" fill="#fff"/><path d="M549.34766,88.36035h3.97558v1.27442h-9.87011V86.499a3.5827,3.5827,0,0,1,.791-2.53418,2.831,2.831,0,0,1,2.16309-.84082,2.75255,2.75255,0,0,1,2.16308.86914,3.63459,3.63459,0,0,1,.77735,2.50586ZM547.794,84.9375a2.16579,2.16579,0,0,0-2.79395,0,2.39266,2.39266,0,0,0-.48242,1.67285v1.75h3.76563v-1.75A2.36826,2.36826,0,0,0,547.794,84.9375Z" fill="#fff"/><path d="M550.99219,73.92676a4.12969,4.12969,0,0,1,1.72266,1.77148,6.01467,6.01467,0,0,1,.60839,2.80664v3.13574h-9.87011V78.50488a6.126,6.126,0,0,1,.5957-2.80664,4.04408,4.04408,0,0,1,1.708-1.77148,5.99612,5.99612,0,0,1,5.23535,0Zm.18945,1.72168a3.72876,3.72876,0,0,0-2.7998-1.02246,3.76682,3.76682,0,0,0-2.80762,1.01562,4.04777,4.04777,0,0,0-1.001,2.96094v1.76367h7.60254V78.60254A4.06641,4.06641,0,0,0,551.18164,75.64844Z" fill="#fff"/><path d="M551.041,65.82031v4.34082l2.28222.8252V72.3584l-9.6875-3.6543V67.2627l9.6875-3.64063v1.373Zm-.99317.36426-4.98437,1.80664,4.98437,1.80469Z" fill="#fff"/><polygon points="543.453 56.286 544.489 56.286 544.489 59.072 553.323 59.072 553.323 60.347 544.489 60.347 544.489 63.132 543.453 63.132 543.453 56.286" fill="#fff"/><polygon points="544.489 53.753 547.863 53.753 547.863 50.001 548.844 50.001 548.844 53.753 552.287 53.753 552.287 49.581 553.323 49.581 553.323 55.026 543.453 55.026 543.453 49.581 544.489 49.581 544.489 53.753" fill="#fff"/><rect x="620.50232" y="31.66174" width="49.87036" height="85.21558" fill="#4fb35d"/><path d="M648.04151,88.07324a4.12738,4.12738,0,0,1,1.72265,1.77051,6.01452,6.01452,0,0,1,.6084,2.80664v3.13672h-9.87012V92.65039a6.12584,6.12584,0,0,1,.59571-2.80664,4.04181,4.04181,0,0,1,1.708-1.77051,5.98737,5.98737,0,0,1,5.23536,0Zm.18945,1.72168a3.72456,3.72456,0,0,0-2.79981-1.02148,3.76632,3.76632,0,0,0-2.80761,1.01465,4.04614,4.04614,0,0,0-1.001,2.96093v1.76465h7.60254V92.749A4.06647,4.06647,0,0,0,648.231,89.79492Z" fill="#fff"/><polygon points="641.539 84.475 644.913 84.475 644.913 80.723 645.893 80.723 645.893 84.475 649.336 84.475 649.336 80.303 650.373 80.303 650.373 85.749 640.502 85.749 640.502 80.303 641.539 80.303 641.539 84.475" fill="#fff"/><polygon points="649.378 77.391 649.378 73.891 650.373 73.891 650.373 78.665 640.502 78.665 640.502 77.391 649.378 77.391" fill="#fff"/><polygon points="641.539 71.315 644.913 71.315 644.913 67.563 645.893 67.563 645.893 71.315 649.336 71.315 649.336 67.144 650.373 67.144 650.373 72.59 640.502 72.59 640.502 67.144 641.539 67.144 641.539 71.315" fill="#fff"/><polygon points="640.502 59.457 641.539 59.457 641.539 62.243 650.373 62.243 650.373 63.518 641.539 63.518 641.539 66.303 640.502 66.303 640.502 59.457" fill="#fff"/><polygon points="641.539 56.924 644.913 56.924 644.913 53.172 645.893 53.172 645.893 56.924 649.336 56.924 649.336 52.752 650.373 52.752 650.373 58.197 640.502 58.197 640.502 52.752 641.539 52.752 641.539 56.924" fill="#fff"/><path d="M103.62446,19.49127V129.68475c0,9.84986-23.09919,17.83478-51.59348,17.83478S.4375,139.53461.4375,129.68475V19.49127" fill="#585b88"/><path d="M103.24946,19.49127V129.68475c.00163,2.306-1.35319,4.55481-3.91679,6.65168-3.83827,3.141-10.34018,5.85925-18.54057,7.772A128.869,128.869,0,0,1,52.031,147.14453c-14.21144.00073-27.07767-1.99365-36.35958-5.20312a36.29715,36.29715,0,0,1-10.94213-5.605c-2.5636-2.09687-3.91842-4.34571-3.91677-6.65168h0V19.49127h-.75V129.68475c.00163,2.6189,1.53422,5.06189,4.19216,7.23243,3.99406,3.26019,10.57624,5.98828,18.84463,7.92157A129.60239,129.60239,0,0,0,52.031,147.89447c14.28285-.00073,27.21335-1.99878,36.6046-5.24426a37.00459,37.00459,0,0,0,11.1717-5.733c2.65795-2.17054,4.19052-4.61353,4.19217-7.23249V19.49127h-.75Z" fill="#2f2e41"/><ellipse cx="52.03098" cy="18.85431" rx="51.59348" ry="17.83478" fill="#585b88"/><path d="M103.62446,18.85431h-.375c.00163,2.306-1.35319,4.55481-3.91679,6.65167-3.83827,3.141-10.34018,5.85925-18.54057,7.772A128.86834,128.86834,0,0,1,52.031,36.31409c-14.21144.00073-27.07767-1.99366-36.35958-5.20313A36.29669,36.29669,0,0,1,4.72927,25.506C2.16567,23.40912.81085,21.16028.8125,18.85431h0c-.00165-2.306,1.35317-4.55487,3.91678-6.65173,3.83826-3.141,10.34017-5.85926,18.54057-7.772A128.86886,128.86886,0,0,1,52.031,1.39447C66.2424,1.39374,79.10863,3.38812,88.39056,6.5976a36.29692,36.29692,0,0,1,10.94211,5.605c2.5636,2.09686,3.9184,4.3457,3.91678,6.65167l.375.00006h.375c-.00164-2.619-1.53422-5.062-4.19216-7.23248C95.81323,8.36163,89.231,5.63354,80.96266,3.70026A129.60187,129.60187,0,0,0,52.031.64453C37.74811.64526,24.81761,2.64331,15.42636,5.88879a37.00424,37.00424,0,0,0-11.1717,5.733C1.59671,13.79236.06413,16.23535.0625,18.85431h0c.00163,2.6189,1.53422,5.06189,4.19216,7.23242C8.24872,29.34692,14.8309,32.075,23.09929,34.0083A129.60294,129.60294,0,0,0,52.031,37.064c14.28285-.00074,27.21335-1.99878,36.6046-5.24427a37.00414,37.00414,0,0,0,11.1717-5.733c2.65795-2.17053,4.19052-4.61352,4.19217-7.23248Z" fill="#2f2e41"/><path d="M103.24946,103.56952c.00163,2.306-1.35319,4.55481-3.91679,6.65173-3.83827,3.141-10.34018,5.85926-18.54057,7.772A128.87271,128.87271,0,0,1,52.031,121.0293c-14.21144.00073-27.07767-1.99366-36.35958-5.20313a36.29534,36.29534,0,0,1-10.94213-5.60492C2.16566,108.12433.81085,105.87549.8125,103.56952h-.75c.00163,2.6189,1.53422,5.06189,4.19216,7.23242,3.99406,3.26025,10.57624,5.98828,18.84463,7.92163A129.60668,129.60668,0,0,0,52.031,121.77924c14.28285-.00074,27.21335-1.99878,36.6046-5.24421a37.00413,37.00413,0,0,0,11.1717-5.73309c2.65795-2.17053,4.19052-4.61352,4.19217-7.23248l-.75.00012Z" fill="#2f2e41"/><path d="M103.24946,74.90649c.00163,2.306-1.35319,4.55481-3.91679,6.65168-3.83827,3.141-10.34018,5.85925-18.54057,7.772A128.86837,128.86837,0,0,1,52.031,92.36627c-14.21144.00073-27.07767-1.99365-36.35958-5.20312a36.29715,36.29715,0,0,1-10.94213-5.605C2.16567,79.4613.81085,77.21246.8125,74.90649h-.75c.00163,2.6189,1.53422,5.06189,4.19216,7.23243,3.99406,3.26019,10.57624,5.98828,18.84463,7.92157A129.60239,129.60239,0,0,0,52.031,93.11621c14.28285-.00073,27.21335-1.99878,36.6046-5.24426a37.00459,37.00459,0,0,0,11.1717-5.733c2.65795-2.17054,4.19052-4.61353,4.19217-7.23249l-.75.00013Z" fill="#2f2e41"/><path d="M103.24946,47.51733c.00163,2.306-1.35319,4.55481-3.91679,6.65174-3.83827,3.141-10.34018,5.85925-18.54057,7.772A128.87212,128.87212,0,0,1,52.031,64.97711c-14.21144.00073-27.07767-1.99365-36.35958-5.20312A36.29534,36.29534,0,0,1,4.72927,54.16907C2.16566,52.07214.81085,49.8233.8125,47.51733h-.75c.00163,2.6189,1.53422,5.06189,4.19216,7.23243C8.24872,58.01,14.8309,60.738,23.09929,62.67139A129.60613,129.60613,0,0,0,52.031,65.72705c14.28285-.00073,27.21335-1.99878,36.6046-5.2442a37.00459,37.00459,0,0,0,11.1717-5.73309c2.65795-2.17054,4.19052-4.61353,4.19217-7.23249l-.75.00013Z" fill="#2f2e41"/><polygon points="25.865 157.56 22.631 163.691 22.631 167.43 21.343 167.43 21.343 163.691 18.095 157.56 19.579 157.56 22.001 162.333 24.409 157.56 25.865 157.56"/><path d="M32.6196,160.12109a3.40826,3.40826,0,0,1,1.37207,1.37207,4.26127,4.26127,0,0,1,.49707,2.10059,4.21757,4.21757,0,0,1-.49707,2.09277,3.41536,3.41536,0,0,1-1.37207,1.36524,4.36347,4.36347,0,0,1-3.96191,0,3.46242,3.46242,0,0,1-1.37891-1.36524,4.17344,4.17344,0,0,1-.5039-2.09277,4.21658,4.21658,0,0,1,.5039-2.10059,3.45489,3.45489,0,0,1,1.37891-1.37207,4.36347,4.36347,0,0,1,3.96191,0Zm-3.24755.95215a2.31655,2.31655,0,0,0-.938.94531,3.6175,3.6175,0,0,0,0,3.13575,2.31064,2.31064,0,0,0,.938.94531,2.76238,2.76238,0,0,0,2.53369,0,2.31369,2.31369,0,0,0,.938-.94531,3.622,3.622,0,0,0,0-3.13575,2.31962,2.31962,0,0,0-.938-.94531,2.76238,2.76238,0,0,0-2.53369,0Z"/><path d="M42.98679,159.74316v7.68653H41.71287v-1.80664a2.58611,2.58611,0,0,1-1.043,1.43554,3.08235,3.08235,0,0,1-1.74317.49707,2.85069,2.85069,0,0,1-2.15576-.86132,3.42886,3.42886,0,0,1-.82617-2.47071v-4.48047h1.27393v4.3545a2.48077,2.48077,0,0,0,.58789,1.7705,2.08779,2.08779,0,0,0,1.59619.62305,2.18094,2.18094,0,0,0,1.68017-.67871,2.81461,2.81461,0,0,0,.62989-1.98145v-4.08789Z"/><path d="M47.41062,160.05859a3.28832,3.28832,0,0,1,1.73633-.4414v1.38672h-.39209a2.71909,2.71909,0,0,0-1.76416.55273,2.21318,2.21318,0,0,0-.686,1.82715v4.0459H45.03074v-7.68653h1.27392v1.55469A2.82557,2.82557,0,0,1,47.41062,160.05859Z"/><path d="M61.57859,165.09863a4.12638,4.12638,0,0,1-1.771,1.72168,6.00254,6.00254,0,0,1-2.80664.60938H53.86472v-9.87012H57.001a6.12591,6.12591,0,0,1,2.80664.59473,4.043,4.043,0,0,1,1.771,1.708,5.99386,5.99386,0,0,1,0,5.23633Zm-1.72168.18848a3.7252,3.7252,0,0,0,1.022-2.79981,3.76273,3.76273,0,0,0-1.01514-2.80664,4.047,4.047,0,0,0-2.96093-1.001H55.13865v7.60156h1.76416A4.06643,4.06643,0,0,0,59.85691,165.28711Z"/><path d="M68.94968,160.20508a2.921,2.921,0,0,1,1.085,1.498v-1.96h1.27441v7.68653H70.03464v-1.96a2.91705,2.91705,0,0,1-1.085,1.498,3.16015,3.16015,0,0,1-1.897.55957,3.48232,3.48232,0,0,1-1.81983-.47558A3.29009,3.29009,0,0,1,63.98,165.68652a4.532,4.532,0,0,1-.45507-2.09277,4.57962,4.57962,0,0,1,.45507-2.10059,3.28523,3.28523,0,0,1,1.25293-1.37207,3.49155,3.49155,0,0,1,1.81983-.47558A3.16015,3.16015,0,0,1,68.94968,160.20508Zm-3.416,1.32324a3.36893,3.36893,0,0,0,0,4.12988,2.46522,2.46522,0,0,0,1.8833.749,2.61457,2.61457,0,0,0,1.35108-.34961,2.43493,2.43493,0,0,0,.93066-.98731,3.11842,3.11842,0,0,0,.33594-1.47656,3.16164,3.16164,0,0,0-.33594-1.48437,2.387,2.387,0,0,0-.93066-.98731,2.65836,2.65836,0,0,0-1.35108-.34277A2.46872,2.46872,0,0,0,65.53366,161.52832Z"/><path d="M77.00681,166.30957v1.12012h-.95215a2.44126,2.44126,0,0,1-1.75684-.56055,2.52829,2.52829,0,0,1-.58105-1.876v-4.14355H72.56882v-1.10645h1.14795v-1.918h1.28808v1.918h1.9878v1.10645h-1.9878v4.17187a1.43411,1.43411,0,0,0,.27295,1.01465,1.31132,1.31132,0,0,0,.94483.27344Z"/><path d="M83.60739,160.20508a2.92092,2.92092,0,0,1,1.085,1.498v-1.96h1.27442v7.68653H84.69235v-1.96a2.91694,2.91694,0,0,1-1.085,1.498,3.16013,3.16013,0,0,1-1.897.55957,3.48229,3.48229,0,0,1-1.81982-.47558,3.29009,3.29009,0,0,1-1.25293-1.36524,4.532,4.532,0,0,1-.45508-2.09277,4.57962,4.57962,0,0,1,.45508-2.10059,3.28523,3.28523,0,0,1,1.25293-1.37207,3.49152,3.49152,0,0,1,1.81982-.47558A3.16013,3.16013,0,0,1,83.60739,160.20508Zm-3.416,1.32324a3.36893,3.36893,0,0,0,0,4.12988,2.46522,2.46522,0,0,0,1.8833.749,2.61456,2.61456,0,0,0,1.35107-.34961,2.435,2.435,0,0,0,.93067-.98731,3.11842,3.11842,0,0,0,.33593-1.47656,3.16164,3.16164,0,0,0-.33593-1.48437,2.387,2.387,0,0,0-.93067-.98731,2.65835,2.65835,0,0,0-1.35107-.34277A2.46872,2.46872,0,0,0,80.19138,161.52832Z"/><path d="M35.01414,182.96973a2.53053,2.53053,0,0,1-1.022.97949,3.47219,3.47219,0,0,1-1.69433.37793,4.075,4.075,0,0,1-1.74268-.35645,3.10605,3.10605,0,0,1-1.21826-.98047,2.76909,2.76909,0,0,1-.5249-1.42089H30.1699a1.91775,1.91775,0,0,0,.28711.81933,1.89683,1.89683,0,0,0,.70019.65723,2.18372,2.18372,0,0,0,1.09863.25976,1.74315,1.74315,0,0,0,1.28809-.44824,1.55493,1.55493,0,0,0,.44824-1.14844,1.476,1.476,0,0,0-.31543-.97949,2.2424,2.2424,0,0,0-.77685-.5957,10.603,10.603,0,0,0-1.25977-.46875,12.61674,12.61674,0,0,1-1.50537-.58106,2.57176,2.57176,0,0,1-.96582-.81836,2.38893,2.38893,0,0,1-.39893-1.44238,2.49293,2.49293,0,0,1,.3711-1.3584,2.43308,2.43308,0,0,1,1.064-.90918,3.83393,3.83393,0,0,1,1.63086-.32226,3.50993,3.50993,0,0,1,2.31006.707,2.70865,2.70865,0,0,1,.99414,1.79883H33.768a1.85823,1.85823,0,0,0-.602-1.03614,1.89515,1.89515,0,0,0-1.33008-.44824,1.8217,1.8217,0,0,0-1.23193.39942,1.40774,1.40774,0,0,0-.46191,1.12695,1.39258,1.39258,0,0,0,.30078.93066,2.09647,2.09647,0,0,0,.749.56055,12.21508,12.21508,0,0,0,1.23193.45508,12.50156,12.50156,0,0,1,1.53321.58789,2.58745,2.58745,0,0,1,.98681.84668,2.53333,2.53333,0,0,1,.40625,1.50488A2.6343,2.6343,0,0,1,35.01414,182.96973Z"/><path d="M42.52439,176.9209a3.40825,3.40825,0,0,1,1.37207,1.37207,4.26131,4.26131,0,0,1,.49707,2.10058,4.21772,4.21772,0,0,1-.49707,2.09278,3.41546,3.41546,0,0,1-1.37207,1.36523,4.36339,4.36339,0,0,1-3.96191,0,3.46246,3.46246,0,0,1-1.37891-1.36523,4.17338,4.17338,0,0,1-.50391-2.09278,4.21642,4.21642,0,0,1,.50391-2.10058,3.45482,3.45482,0,0,1,1.37891-1.37207,4.36339,4.36339,0,0,1,3.96191,0Zm-3.24756.95215a2.31655,2.31655,0,0,0-.938.94531,3.61748,3.61748,0,0,0,0,3.13574,2.31064,2.31064,0,0,0,.938.94531,2.76238,2.76238,0,0,0,2.53369,0,2.31345,2.31345,0,0,0,.938-.94531,3.622,3.622,0,0,0,0-3.13574,2.31937,2.31937,0,0,0-.938-.94531,2.76238,2.76238,0,0,0-2.53369,0Z"/><path d="M52.89158,176.543v7.68652H51.61765v-1.80664a2.58609,2.58609,0,0,1-1.043,1.43555,3.0824,3.0824,0,0,1-1.74316.49707,2.85066,2.85066,0,0,1-2.15576-.86133,3.42885,3.42885,0,0,1-.82618-2.4707V176.543h1.27393v4.35449a2.48082,2.48082,0,0,0,.58789,1.77051,2.08784,2.08784,0,0,0,1.59619.62305,2.18091,2.18091,0,0,0,1.68018-.67872,2.81459,2.81459,0,0,0,.62988-1.98144V176.543Z"/><path d="M57.3154,176.8584a3.28828,3.28828,0,0,1,1.73633-.44141v1.38672h-.39209a2.719,2.719,0,0,0-1.76416.55274,2.21315,2.21315,0,0,0-.686,1.82714v4.0459H54.93552V176.543h1.27393v1.55469A2.82543,2.82543,0,0,1,57.3154,176.8584Z"/><path d="M66.14939,177.22949a3.3207,3.3207,0,0,1,1.18994,2.09961H65.99558a1.96322,1.96322,0,0,0-.76319-1.29492,2.69919,2.69919,0,0,0-2.772-.16113,2.24159,2.24159,0,0,0-.88867.94531,3.85363,3.85363,0,0,0,0,3.14941,2.236,2.236,0,0,0,.88867.94532,2.6757,2.6757,0,0,0,2.772-.168,1.99006,1.99006,0,0,0,.76319-1.30176h1.34375a3.29983,3.29983,0,0,1-1.18994,2.10644,3.76,3.76,0,0,1-2.436.77735,3.95687,3.95687,0,0,1-1.96-.47559,3.36538,3.36538,0,0,1-1.33691-1.36523,4.3212,4.3212,0,0,1-.48291-2.09278,4.36609,4.36609,0,0,1,.48291-2.10058,3.35893,3.35893,0,0,1,1.33691-1.37207,3.96735,3.96735,0,0,1,1.96-.47559A3.74193,3.74193,0,0,1,66.14939,177.22949Z"/><path d="M76.0195,180.65918h-6.146a2.68952,2.68952,0,0,0,.749,1.97363,2.44,2.44,0,0,0,1.729.65821,2.50038,2.50038,0,0,0,1.54688-.46875,1.942,1.942,0,0,0,.76318-1.25293H76.0195a3.21122,3.21122,0,0,1-1.876,2.4082,4.15108,4.15108,0,0,1-1.73633.34961,3.95682,3.95682,0,0,1-1.96-.47559,3.36541,3.36541,0,0,1-1.33692-1.36523,4.32132,4.32132,0,0,1-.48291-2.09278,4.36621,4.36621,0,0,1,.48291-2.10058,3.359,3.359,0,0,1,1.33692-1.37207,3.96729,3.96729,0,0,1,1.96-.47559,3.87864,3.87864,0,0,1,1.95312.47559,3.27768,3.27768,0,0,1,1.27393,1.27441,3.58683,3.58683,0,0,1,.44092,1.76367A3.81431,3.81431,0,0,1,76.0195,180.65918Zm-1.5122-2.04395a2.04632,2.04632,0,0,0-.88184-.85351,2.67547,2.67547,0,0,0-1.21826-.28027,2.52208,2.52208,0,0,0-1.76367.65039,2.6241,2.6241,0,0,0-.77,1.91113h4.91406A2.61409,2.61409,0,0,0,74.5073,178.61523Z"/><path d="M338.61084,166.42969a4.7529,4.7529,0,0,1,1.624,2.53808h-1.34375a3.31112,3.31112,0,0,0-3.27637-2.23828,3.12627,3.12627,0,0,0-1.72852.49024,3.35118,3.35118,0,0,0-1.2041,1.40429,4.88453,4.88453,0,0,0-.44141,2.14356,4.79843,4.79843,0,0,0,.44141,2.12109,3.35509,3.35509,0,0,0,1.2041,1.39746,3.12627,3.12627,0,0,0,1.72852.49024,3.31112,3.31112,0,0,0,3.27637-2.23828h1.34375a4.7529,4.7529,0,0,1-1.624,2.53808,4.66239,4.66239,0,0,1-2.98144.92871,4.42471,4.42471,0,0,1-4.10938-2.52343,5.99836,5.99836,0,0,1-.59473-2.71387,6.08055,6.08055,0,0,1,.59473-2.73633,4.41136,4.41136,0,0,1,4.10938-2.53027A4.66239,4.66239,0,0,1,338.61084,166.42969Z"/><path d="M346.98975,168.36816a3.05048,3.05048,0,0,1,1.085,1.56543v-2.04785h1.27441V175.917h-1.27441v-2.04785a2.97668,2.97668,0,0,1-2.98242,2.15039A3.28984,3.28984,0,0,1,342.02,174.0957a4.916,4.916,0,0,1-.45508-2.1875,4.96715,4.96715,0,0,1,.45508-2.19433,3.28137,3.28137,0,0,1,3.07227-1.93067A3.06713,3.06713,0,0,1,346.98975,168.36816Zm-3.416,1.38282a3.646,3.646,0,0,0,0,4.31543,2.41035,2.41035,0,0,0,1.88281.7832,2.529,2.529,0,0,0,1.35157-.36621,2.49333,2.49333,0,0,0,.93066-1.03125,3.385,3.385,0,0,0,.33594-1.54395,3.4347,3.4347,0,0,0-.33594-1.55078,2.44631,2.44631,0,0,0-.93066-1.03125,2.577,2.577,0,0,0-1.35157-.3584A2.41359,2.41359,0,0,0,343.57373,169.751Z"/><path d="M357.44092,168.28027a3.38352,3.38352,0,0,1,1.25293,1.4336,4.98079,4.98079,0,0,1,.45508,2.19433,4.92939,4.92939,0,0,1-.45508,2.1875,3.28991,3.28991,0,0,1-3.07324,1.92383,2.96825,2.96825,0,0,1-2.96778-2.15039v5.85156h-1.27441v-11.835h1.27441v2.04785a2.96539,2.96539,0,0,1,2.96778-2.15039A3.3743,3.3743,0,0,1,357.44092,168.28027Zm-3.52832,1.0459a2.42977,2.42977,0,0,0-.9375,1.03125,3.42183,3.42183,0,0,0-.33594,1.55078,3.37238,3.37238,0,0,0,.33594,1.54395,2.47593,2.47593,0,0,0,.9375,1.03125,2.53574,2.53574,0,0,0,1.34375.36621,2.42909,2.42909,0,0,0,1.89746-.7832,3.646,3.646,0,0,0,0-4.31543,2.43234,2.43234,0,0,0-1.89746-.78321A2.5839,2.5839,0,0,0,353.9126,169.32617Z"/><path d="M364.48291,174.74707V175.917h-.95215a2.37394,2.37394,0,0,1-1.75683-.585,2.71791,2.71791,0,0,1-.58106-1.96V169.041h-1.14843v-1.15528h1.14843v-2.00488H362.481v2.00488h1.9873V169.041H362.481v4.35937a1.55393,1.55393,0,0,0,.27246,1.06152,1.28076,1.28076,0,0,0,.94531.28516Z"/><path d="M372.86865,167.88574V175.917h-1.27441v-1.88672a2.69752,2.69752,0,0,1-1.043,1.499,2.9786,2.9786,0,0,1-1.74316.51953,2.78793,2.78793,0,0,1-2.15528-.89942,3.68475,3.68475,0,0,1-.82617-2.582v-4.68164h1.27344v4.54981a2.66768,2.66768,0,0,0,.58789,1.85058,2.04721,2.04721,0,0,0,1.59668.65137,2.13618,2.13618,0,0,0,1.67969-.71,3.0256,3.0256,0,0,0,.62988-2.07031v-4.27149Z"/><path d="M377.29248,168.21484a3.17369,3.17369,0,0,1,1.73633-.46093v1.44824h-.39258a2.64019,2.64019,0,0,0-1.76367.57812,2.36651,2.36651,0,0,0-.68652,1.90918V175.917H374.9126v-8.03125H376.186v1.624A2.90832,2.90832,0,0,1,377.29248,168.21484Z"/><path d="M387.30225,172.18652h-6.14551a2.87857,2.87857,0,0,0,.749,2.0625,2.3818,2.3818,0,0,0,1.72852.68848,2.42686,2.42686,0,0,0,1.54687-.49023,2.04809,2.04809,0,0,0,.76368-1.30957h1.35742a3.457,3.457,0,0,1-.62305,1.49218,3.265,3.265,0,0,1-1.25293,1.02442,4.00717,4.00717,0,0,1-1.73633.36523,3.82738,3.82738,0,0,1-1.96-.49707,3.45356,3.45356,0,0,1-1.33691-1.42676,4.68944,4.68944,0,0,1-.48242-2.1875,4.73792,4.73792,0,0,1,.48242-2.19433,3.44233,3.44233,0,0,1,1.33691-1.4336,3.82747,3.82747,0,0,1,1.96-.49707,3.74012,3.74012,0,0,1,1.95313.49707,3.35761,3.35761,0,0,1,1.27441,1.33106,3.88548,3.88548,0,0,1,.44043,1.84375A4.16153,4.16153,0,0,1,387.30225,172.18652Zm-1.51172-2.13574a2.09184,2.09184,0,0,0-.88184-.89258,2.59052,2.59052,0,0,0-1.21875-.293,2.46239,2.46239,0,0,0-1.76367.68067,2.80506,2.80506,0,0,0-.76953,1.99707h4.91406A2.84062,2.84062,0,0,0,385.79053,170.05078Z"/><path d="M394.0708,168.36816a3.04471,3.04471,0,0,1,1.085,1.56543v-4.84277h1.27442V175.917h-1.27442v-2.04785a2.97659,2.97659,0,0,1-2.98144,2.15039,3.28991,3.28991,0,0,1-3.07324-1.92383,4.916,4.916,0,0,1-.45508-2.1875,4.96715,4.96715,0,0,1,.45508-2.19433,3.28144,3.28144,0,0,1,3.07324-1.93067A3.06422,3.06422,0,0,1,394.0708,168.36816Zm-3.416,1.38282a3.646,3.646,0,0,0,0,4.31543,2.41383,2.41383,0,0,0,1.88379.7832,2.52322,2.52322,0,0,0,1.35058-.36621,2.49335,2.49335,0,0,0,.93067-1.03125,3.37238,3.37238,0,0,0,.33593-1.54395,3.42183,3.42183,0,0,0-.33593-1.55078,2.44633,2.44633,0,0,0-.93067-1.03125,2.57106,2.57106,0,0,0-1.35058-.3584A2.41708,2.41708,0,0,0,390.65479,169.751Z"/><path d="M409.26807,166.42969a4.75289,4.75289,0,0,1,1.624,2.53808h-1.34375a3.31338,3.31338,0,0,0-3.27637-2.23828,3.12395,3.12395,0,0,0-1.72851.49024,3.35111,3.35111,0,0,0-1.2041,1.40429,4.88439,4.88439,0,0,0-.44141,2.14356,4.79829,4.79829,0,0,0,.44141,2.12109,3.355,3.355,0,0,0,1.2041,1.39746,3.12395,3.12395,0,0,0,1.72851.49024,3.31338,3.31338,0,0,0,3.27637-2.23828h1.34375a4.75289,4.75289,0,0,1-1.624,2.53808,4.66522,4.66522,0,0,1-2.98242.92871,4.42464,4.42464,0,0,1-4.1084-2.52343,5.98586,5.98586,0,0,1-.59571-2.71387,6.06787,6.06787,0,0,1,.59571-2.73633,4.41128,4.41128,0,0,1,4.1084-2.53027A4.66522,4.66522,0,0,1,409.26807,166.42969Z"/><path d="M418.81592,168.65332a3.70775,3.70775,0,0,1,.82617,2.59668v4.667h-1.27441v-4.5498a2.63821,2.63821,0,0,0-.58789-1.84278,2.05372,2.05372,0,0,0-1.59571-.64453,2.13827,2.13827,0,0,0-1.68066.71,3.02561,3.02561,0,0,0-.62988,2.07032V175.917H412.6001V165.09082h1.27344v4.69629a2.73763,2.73763,0,0,1,1.043-1.50684,2.93478,2.93478,0,0,1,1.72949-.52636A2.808,2.808,0,0,1,418.81592,168.65332Z"/><path d="M426.64893,168.36816a3.05622,3.05622,0,0,1,1.085,1.56543v-2.04785h1.27344V175.917h-1.27344v-2.04785a2.97668,2.97668,0,0,1-2.98242,2.15039,3.28991,3.28991,0,0,1-3.07325-1.92383,4.92939,4.92939,0,0,1-.45507-2.1875,4.98079,4.98079,0,0,1,.45507-2.19433,3.28144,3.28144,0,0,1,3.07325-1.93067A3.06713,3.06713,0,0,1,426.64893,168.36816Zm-3.416,1.38282a3.646,3.646,0,0,0,0,4.31543,2.41034,2.41034,0,0,0,1.88281.7832,2.47446,2.47446,0,0,0,2.28223-1.39746,3.385,3.385,0,0,0,.33594-1.54395,3.4347,3.4347,0,0,0-.33594-1.55078,2.45475,2.45475,0,0,0-.93164-1.03125,2.57107,2.57107,0,0,0-1.35059-.3584A2.41358,2.41358,0,0,0,423.23291,169.751Z"/><path d="M437.25342,168.65332a3.70775,3.70775,0,0,1,.82617,2.59668v4.667h-1.27441v-4.5498a2.63821,2.63821,0,0,0-.58789-1.84278,2.05372,2.05372,0,0,0-1.59571-.64453,2.13827,2.13827,0,0,0-1.68066.71,3.02561,3.02561,0,0,0-.62988,2.07032V175.917H431.0376v-8.03125H432.311v1.90137a2.73763,2.73763,0,0,1,1.043-1.50684,2.93478,2.93478,0,0,1,1.72949-.52636A2.808,2.808,0,0,1,437.25342,168.65332Z"/><path d="M445.08643,168.36816a3.05622,3.05622,0,0,1,1.085,1.56543v-2.04785h1.27344v8.16309a4.23945,4.23945,0,0,1-.44727,1.97558,3.307,3.307,0,0,1-1.26074,1.34571,3.6309,3.6309,0,0,1-1.88965.48242,3.93777,3.93777,0,0,1-2.53418-.78223,3.48317,3.48317,0,0,1-1.24609-2.11426h1.25976a2.28276,2.28276,0,0,0,.84766,1.26563,2.628,2.628,0,0,0,1.60254.46094,2.29775,2.29775,0,0,0,1.71484-.69532,2.65388,2.65388,0,0,0,.67969-1.93847v-2.17969a2.97668,2.97668,0,0,1-2.98242,2.15039,3.28991,3.28991,0,0,1-3.07325-1.92383,4.92939,4.92939,0,0,1-.45507-2.1875,4.98079,4.98079,0,0,1,.45507-2.19433,3.28144,3.28144,0,0,1,3.07325-1.93067A3.06713,3.06713,0,0,1,445.08643,168.36816Zm-3.416,1.38282a3.646,3.646,0,0,0,0,4.31543,2.41034,2.41034,0,0,0,1.88281.7832,2.47446,2.47446,0,0,0,2.28223-1.39746,3.385,3.385,0,0,0,.33594-1.54395,3.4347,3.4347,0,0,0-.33594-1.55078,2.45475,2.45475,0,0,0-.93164-1.03125,2.57107,2.57107,0,0,0-1.35059-.3584A2.41358,2.41358,0,0,0,441.67041,169.751Z"/><path d="M456.48877,172.18652h-6.14648a2.887,2.887,0,0,0,.749,2.0625,2.38561,2.38561,0,0,0,1.72949.68848,2.4269,2.4269,0,0,0,1.54688-.49023,2.04273,2.04273,0,0,0,.76269-1.30957h1.3584a3.457,3.457,0,0,1-.623,1.49218,3.27219,3.27219,0,0,1-1.25293,1.02442,4.00712,4.00712,0,0,1-1.73632.36523,3.82732,3.82732,0,0,1-1.96-.49707,3.45358,3.45358,0,0,1-1.33692-1.42676,4.67767,4.67767,0,0,1-.4834-2.1875,4.726,4.726,0,0,1,.4834-2.19433,3.44235,3.44235,0,0,1,1.33692-1.4336,3.82742,3.82742,0,0,1,1.96-.49707,3.74252,3.74252,0,0,1,1.95312.49707,3.35763,3.35763,0,0,1,1.27442,1.33106,3.8856,3.8856,0,0,1,.44043,1.84375A4.16144,4.16144,0,0,1,456.48877,172.18652Zm-1.51172-2.13574a2.0886,2.0886,0,0,0-.88281-.89258,2.58666,2.58666,0,0,0-1.21777-.293,2.45919,2.45919,0,0,0-1.76368.68067,2.80135,2.80135,0,0,0-.7705,1.99707h4.91406A2.84085,2.84085,0,0,0,454.97705,170.05078Z"/><polygon points="462.943 166.686 462.943 170.212 466.695 170.212 466.695 171.235 462.943 171.235 462.943 174.835 467.115 174.835 467.115 175.917 461.669 175.917 461.669 165.604 467.115 165.604 467.115 166.686 462.943 166.686"/><polygon points="471.735 174.498 474.115 167.886 475.487 167.886 472.477 175.917 470.965 175.917 467.955 167.886 469.327 167.886 471.735 174.498"/><path d="M483.74658,172.18652H477.6001a2.887,2.887,0,0,0,.749,2.0625,2.38562,2.38562,0,0,0,1.7295.68848,2.42688,2.42688,0,0,0,1.54687-.49023,2.04279,2.04279,0,0,0,.7627-1.30957h1.35839a3.45709,3.45709,0,0,1-.623,1.49218,3.27234,3.27234,0,0,1-1.25293,1.02442,4.00717,4.00717,0,0,1-1.73633.36523,3.82732,3.82732,0,0,1-1.96-.49707,3.45358,3.45358,0,0,1-1.33692-1.42676,4.67767,4.67767,0,0,1-.48339-2.1875,4.726,4.726,0,0,1,.48339-2.19433,3.44235,3.44235,0,0,1,1.33692-1.4336,3.82742,3.82742,0,0,1,1.96-.49707,3.74252,3.74252,0,0,1,1.95312.49707,3.35763,3.35763,0,0,1,1.27442,1.33106,3.8856,3.8856,0,0,1,.44043,1.84375A4.16144,4.16144,0,0,1,483.74658,172.18652Zm-1.51171-2.13574a2.08862,2.08862,0,0,0-.88282-.89258,2.58661,2.58661,0,0,0-1.21777-.293,2.45915,2.45915,0,0,0-1.76367.68067,2.80132,2.80132,0,0,0-.77051,1.99707h4.91406A2.841,2.841,0,0,0,482.23487,170.05078Z"/><path d="M491.68506,168.65332a3.70775,3.70775,0,0,1,.82617,2.59668v4.667h-1.27441v-4.5498a2.63821,2.63821,0,0,0-.58789-1.84278,2.05372,2.05372,0,0,0-1.59571-.64453,2.13827,2.13827,0,0,0-1.68066.71,3.02561,3.02561,0,0,0-.62988,2.07032V175.917h-1.27344v-8.03125h1.27344v1.90137a2.73763,2.73763,0,0,1,1.043-1.50684,2.93478,2.93478,0,0,1,1.72949-.52636A2.808,2.808,0,0,1,491.68506,168.65332Z"/><path d="M498.13916,174.74707V175.917H497.187a2.37394,2.37394,0,0,1-1.75683-.585,2.71791,2.71791,0,0,1-.58106-1.96V169.041h-1.14843v-1.15528h1.14843v-2.00488h1.28809v2.00488h1.9873V169.041h-1.9873v4.35937a1.55393,1.55393,0,0,0,.27246,1.06152,1.27921,1.27921,0,0,0,.94531.28516Z"/><path d="M504.19385,168.49219a3.04183,3.04183,0,0,1,.959,1.90918h-1.21875a1.87654,1.87654,0,0,0-.5664-1.17774,1.80134,1.80134,0,0,0-1.29492-.46093,1.55063,1.55063,0,0,0-1.07129.34472,1.18,1.18,0,0,0-.38477.92871.98108.98108,0,0,0,.25879.709,1.64937,1.64937,0,0,0,.64355.41015,10.40156,10.40156,0,0,0,1.05762.29981,10.06812,10.06812,0,0,1,1.37891.417,2.16558,2.16558,0,0,1,.89551.68066,1.97007,1.97007,0,0,1,.37109,1.25782,2.01374,2.01374,0,0,1-.707,1.59472,2.76954,2.76954,0,0,1-1.88281.61426,3.49574,3.49574,0,0,1-2.24024-.6875,2.77526,2.77526,0,0,1-1.02148-1.917h1.23144a1.70055,1.70055,0,0,0,.60938,1.18555,2.13123,2.13123,0,0,0,1.4209.45312,1.43774,1.43774,0,0,0,1.02929-.35059,1.2116,1.2116,0,0,0,.3711-.92187,1.03243,1.03243,0,0,0-.2666-.74609,1.71778,1.71778,0,0,0-.65723-.42383,9.33356,9.33356,0,0,0-1.07813-.30762,10.17834,10.17834,0,0,1-1.36523-.41016,2.08678,2.08678,0,0,1-.86816-.65039,1.8784,1.8784,0,0,1-.35743-1.207,2.05991,2.05991,0,0,1,.71485-1.63183,2.86138,2.86138,0,0,1,1.94531-.6211A3.0212,3.0212,0,0,1,504.19385,168.49219Z"/><path d="M510.40283,164.9375a.98889.98889,0,0,1,1.25977,0,.85525.85525,0,0,1,0,1.18457.98561.98561,0,0,1-1.25977,0,.85525.85525,0,0,1,0-1.18457Zm1.25977,2.94824V175.917h-1.27344v-8.03125Z"/><path d="M519.92334,168.65332a3.70775,3.70775,0,0,1,.82617,2.59668v4.667H519.4751v-4.5498a2.63821,2.63821,0,0,0-.58789-1.84278,2.05371,2.05371,0,0,0-1.5957-.64453,2.13828,2.13828,0,0,0-1.68067.71,3.02561,3.02561,0,0,0-.62988,2.07032V175.917h-1.27344v-8.03125H514.981v1.90137a2.73763,2.73763,0,0,1,1.043-1.50684,2.93478,2.93478,0,0,1,1.72949-.52636A2.808,2.808,0,0,1,519.92334,168.65332Z"/><path d="M533.51709,166.42969a4.7529,4.7529,0,0,1,1.624,2.53808h-1.34375a3.31338,3.31338,0,0,0-3.27637-2.23828,3.124,3.124,0,0,0-1.72852.49024,3.35118,3.35118,0,0,0-1.2041,1.40429,4.88453,4.88453,0,0,0-.44141,2.14356,4.79843,4.79843,0,0,0,.44141,2.12109,3.35509,3.35509,0,0,0,1.2041,1.39746,3.124,3.124,0,0,0,1.72852.49024,3.31338,3.31338,0,0,0,3.27637-2.23828h1.34375a4.7529,4.7529,0,0,1-1.624,2.53808,4.66522,4.66522,0,0,1-2.98242.92871,4.42464,4.42464,0,0,1-4.1084-2.52343,5.98586,5.98586,0,0,1-.5957-2.71387,6.06787,6.06787,0,0,1,.5957-2.73633,4.41128,4.41128,0,0,1,4.1084-2.53027A4.66522,4.66522,0,0,1,533.51709,166.42969Z"/><path d="M543.06494,168.65332a3.70775,3.70775,0,0,1,.82618,2.59668v4.667H542.6167v-4.5498a2.63821,2.63821,0,0,0-.58789-1.84278,2.05371,2.05371,0,0,0-1.5957-.64453,2.13829,2.13829,0,0,0-1.68067.71,3.02561,3.02561,0,0,0-.62988,2.07032V175.917h-1.27344V165.09082h1.27344v4.69629a2.73768,2.73768,0,0,1,1.043-1.50684,2.93478,2.93478,0,0,1,1.72949-.52636A2.808,2.808,0,0,1,543.06494,168.65332Z"/><path d="M548.231,168.21484a3.17028,3.17028,0,0,1,1.73535-.46093v1.44824h-.3916a2.64019,2.64019,0,0,0-1.76367.57812,2.36651,2.36651,0,0,0-.68653,1.90918V175.917h-1.27343v-8.03125h1.27343v1.624A2.90841,2.90841,0,0,1,548.231,168.21484Z"/><path d="M556.69385,168.28027a3.4964,3.4964,0,0,1,1.37207,1.4336,4.62217,4.62217,0,0,1,.49707,2.19433,4.57507,4.57507,0,0,1-.49707,2.1875,3.50852,3.50852,0,0,1-1.37207,1.42676,4.19585,4.19585,0,0,1-3.96191,0,3.54313,3.54313,0,0,1-1.37891-1.42676,4.5097,4.5097,0,0,1-.50488-2.1875,4.556,4.556,0,0,1,.50488-2.19433,3.53058,3.53058,0,0,1,1.37891-1.4336,4.19585,4.19585,0,0,1,3.96191,0Zm-3.24805.99512a2.3747,2.3747,0,0,0-.93847.98731,3.94481,3.94481,0,0,0,0,3.27734,2.37468,2.37468,0,0,0,.93847.9873,2.65208,2.65208,0,0,0,2.53418,0,2.37863,2.37863,0,0,0,.9375-.9873,3.93507,3.93507,0,0,0,0-3.27734,2.37866,2.37866,0,0,0-.9375-.98731,2.65208,2.65208,0,0,0-2.53418,0Z"/><path d="M566.44483,168.65332A3.70775,3.70775,0,0,1,567.271,171.25v4.667h-1.27442v-4.5498a2.63821,2.63821,0,0,0-.58789-1.84278,2.05368,2.05368,0,0,0-1.5957-.64453,2.13826,2.13826,0,0,0-1.68066.71,3.02556,3.02556,0,0,0-.62989,2.07032V175.917H560.229v-8.03125h1.27343v1.90137a2.73768,2.73768,0,0,1,1.043-1.50684,2.9348,2.9348,0,0,1,1.72949-.52636A2.808,2.808,0,0,1,566.44483,168.65332Z"/><path d="M574.69776,168.28027a3.49653,3.49653,0,0,1,1.37207,1.4336,4.62217,4.62217,0,0,1,.49707,2.19433,4.57507,4.57507,0,0,1-.49707,2.1875,3.50865,3.50865,0,0,1-1.37207,1.42676,4.19587,4.19587,0,0,1-3.96192,0,3.54311,3.54311,0,0,1-1.3789-1.42676,4.50959,4.50959,0,0,1-.50489-2.1875,4.55586,4.55586,0,0,1,.50489-2.19433,3.53056,3.53056,0,0,1,1.3789-1.4336,4.19587,4.19587,0,0,1,3.96192,0Zm-3.24805.99512a2.37466,2.37466,0,0,0-.93848.98731,3.94491,3.94491,0,0,0,0,3.27734,2.37463,2.37463,0,0,0,.93848.9873,2.65208,2.65208,0,0,0,2.53418,0,2.37863,2.37863,0,0,0,.9375-.9873,3.93507,3.93507,0,0,0,0-3.27734,2.37866,2.37866,0,0,0-.9375-.98731,2.65208,2.65208,0,0,0-2.53418,0Z"/><rect x="578.23291" y="165.09082" width="1.27344" height="10.82617"/><path d="M587.01807,168.28027a3.4964,3.4964,0,0,1,1.37207,1.4336,4.62217,4.62217,0,0,1,.49707,2.19433,4.57507,4.57507,0,0,1-.49707,2.1875,3.50852,3.50852,0,0,1-1.37207,1.42676,4.19587,4.19587,0,0,1-3.96192,0,3.54317,3.54317,0,0,1-1.3789-1.42676,4.50959,4.50959,0,0,1-.50488-2.1875,4.55586,4.55586,0,0,1,.50488-2.19433,3.53062,3.53062,0,0,1,1.3789-1.4336,4.19587,4.19587,0,0,1,3.96192,0Zm-3.248.99512a2.37479,2.37479,0,0,0-.93848.98731,3.94491,3.94491,0,0,0,0,3.27734,2.37476,2.37476,0,0,0,.93848.9873,2.65208,2.65208,0,0,0,2.53418,0,2.37863,2.37863,0,0,0,.9375-.9873,3.93507,3.93507,0,0,0,0-3.27734,2.37866,2.37866,0,0,0-.9375-.98731,2.65208,2.65208,0,0,0-2.53418,0Z"/><path d="M595.6001,168.36816a3.05616,3.05616,0,0,1,1.085,1.56543v-2.04785h1.27344v8.16309a4.23945,4.23945,0,0,1-.44727,1.97558,3.30692,3.30692,0,0,1-1.26074,1.34571,3.6309,3.6309,0,0,1-1.88965.48242,3.93777,3.93777,0,0,1-2.53418-.78223,3.48317,3.48317,0,0,1-1.24609-2.11426h1.25976a2.28276,2.28276,0,0,0,.84766,1.26563,2.628,2.628,0,0,0,1.60254.46094,2.29775,2.29775,0,0,0,1.71484-.69532,2.65388,2.65388,0,0,0,.67969-1.93847v-2.17969a2.97668,2.97668,0,0,1-2.98242,2.15039,3.28991,3.28991,0,0,1-3.07324-1.92383,4.92926,4.92926,0,0,1-.45508-2.1875,4.98065,4.98065,0,0,1,.45508-2.19433,3.28144,3.28144,0,0,1,3.07324-1.93067A3.06713,3.06713,0,0,1,595.6001,168.36816Zm-3.416,1.38282a3.646,3.646,0,0,0,0,4.31543,2.41036,2.41036,0,0,0,1.88282.7832,2.47446,2.47446,0,0,0,2.28222-1.39746,3.38484,3.38484,0,0,0,.33594-1.54395,3.43457,3.43457,0,0,0-.33594-1.55078,2.45468,2.45468,0,0,0-.93164-1.03125,2.57106,2.57106,0,0,0-1.35058-.3584A2.4136,2.4136,0,0,0,592.18408,169.751Z"/><path d="M600.00244,164.9375a.98889.98889,0,0,1,1.25977,0,.85525.85525,0,0,1,0,1.18457.98561.98561,0,0,1-1.25977,0,.85525.85525,0,0,1,0-1.18457Zm1.25977,2.94824V175.917h-1.27344v-8.03125Z"/><path d="M609.145,168.60254a3.50946,3.50946,0,0,1,1.18945,2.19434h-1.34375a2.07685,2.07685,0,0,0-.76269-1.35352,2.4307,2.4307,0,0,0-1.54688-.49024,2.39127,2.39127,0,0,0-1.22558.32227,2.29858,2.29858,0,0,0-.88867.98731,4.20039,4.20039,0,0,0,0,3.292,2.29855,2.29855,0,0,0,.88867.9873,2.57955,2.57955,0,0,0,2.77246-.17578,2.10226,2.10226,0,0,0,.76269-1.36035h1.34375A3.49351,3.49351,0,0,1,609.145,175.208a3.65894,3.65894,0,0,1-2.43652.81152,3.82732,3.82732,0,0,1-1.96-.49707,3.45358,3.45358,0,0,1-1.33692-1.42676,4.67767,4.67767,0,0,1-.4834-2.1875,4.726,4.726,0,0,1,.4834-2.19433,3.44235,3.44235,0,0,1,1.33692-1.4336,3.82742,3.82742,0,0,1,1.96-.49707A3.63324,3.63324,0,0,1,609.145,168.60254Z"/><path d="M617.04737,168.36816a3.05627,3.05627,0,0,1,1.085,1.56543v-2.04785h1.27343V175.917h-1.27343v-2.04785a2.97668,2.97668,0,0,1-2.98243,2.15039,3.28991,3.28991,0,0,1-3.07324-1.92383,4.92939,4.92939,0,0,1-.45508-2.1875,4.98079,4.98079,0,0,1,.45508-2.19433,3.28144,3.28144,0,0,1,3.07324-1.93067A3.06716,3.06716,0,0,1,617.04737,168.36816Zm-3.416,1.38282a3.646,3.646,0,0,0,0,4.31543,2.41033,2.41033,0,0,0,1.88281.7832,2.47446,2.47446,0,0,0,2.28223-1.39746,3.385,3.385,0,0,0,.33594-1.54395,3.4347,3.4347,0,0,0-.33594-1.55078,2.45475,2.45475,0,0,0-.93164-1.03125,2.5711,2.5711,0,0,0-1.35059-.3584A2.41356,2.41356,0,0,0,613.63135,169.751Z"/><rect x="621.43604" y="165.09082" width="1.27344" height="10.82617"/><path d="M635.20459,166.14453a4.69537,4.69537,0,0,1,1.72949,1.87988,6.22457,6.22457,0,0,1,0,5.457,4.69537,4.69537,0,0,1-1.72949,1.87988,4.63784,4.63784,0,0,1-2.4707.67285,4.65592,4.65592,0,0,1-4.22754-2.55273,6.216,6.216,0,0,1,0-5.457,4.80672,4.80672,0,0,1,6.69824-1.87988Zm-4.29785,1.06055a3.342,3.342,0,0,0-1.25977,1.4043,5.2576,5.2576,0,0,0,0,4.27929,3.33458,3.33458,0,0,0,1.25977,1.41211,3.44007,3.44007,0,0,0,1.82715.49024,3.33159,3.33159,0,0,0,3.07324-1.90918,5.24142,5.24142,0,0,0,0-4.27246,3.3483,3.3483,0,0,0-1.25976-1.4043,3.62459,3.62459,0,0,0-3.64063,0Z"/><path d="M641.66651,168.21484a3.17026,3.17026,0,0,1,1.73535-.46093v1.44824h-.3916a2.64023,2.64023,0,0,0-1.76368.57812,2.36654,2.36654,0,0,0-.68652,1.90918V175.917h-1.27344v-8.03125h1.27344v1.624A2.90828,2.90828,0,0,1,641.66651,168.21484Z"/><path d="M649.70947,168.36816a3.05623,3.05623,0,0,1,1.085,1.56543v-4.84277h1.27343V175.917h-1.27343v-2.04785a2.9767,2.9767,0,0,1-2.98243,2.15039,3.28991,3.28991,0,0,1-3.07324-1.92383,4.92939,4.92939,0,0,1-.45508-2.1875,4.98079,4.98079,0,0,1,.45508-2.19433,3.28144,3.28144,0,0,1,3.07324-1.93067A3.06711,3.06711,0,0,1,649.70947,168.36816Zm-3.416,1.38282a3.646,3.646,0,0,0,0,4.31543,2.41033,2.41033,0,0,0,1.88281.7832,2.47446,2.47446,0,0,0,2.28223-1.39746,3.385,3.385,0,0,0,.33594-1.54395,3.4347,3.4347,0,0,0-.33594-1.55078,2.45475,2.45475,0,0,0-.93164-1.03125,2.5711,2.5711,0,0,0-1.35059-.3584A2.41356,2.41356,0,0,0,646.29346,169.751Z"/><path d="M661.11182,172.18652h-6.14649a2.887,2.887,0,0,0,.749,2.0625,2.38561,2.38561,0,0,0,1.72949.68848,2.42686,2.42686,0,0,0,1.54687-.49023,2.04275,2.04275,0,0,0,.7627-1.30957h1.3584a3.457,3.457,0,0,1-.623,1.49218,3.27219,3.27219,0,0,1-1.25293,1.02442,4.00717,4.00717,0,0,1-1.73633.36523,3.82738,3.82738,0,0,1-1.96-.49707,3.45356,3.45356,0,0,1-1.33691-1.42676,4.67755,4.67755,0,0,1-.4834-2.1875,4.72588,4.72588,0,0,1,.4834-2.19433,3.44233,3.44233,0,0,1,1.33691-1.4336,3.82747,3.82747,0,0,1,1.96-.49707,3.74258,3.74258,0,0,1,1.95313.49707,3.35761,3.35761,0,0,1,1.27441,1.33106,3.88548,3.88548,0,0,1,.44043,1.84375A4.16153,4.16153,0,0,1,661.11182,172.18652Zm-1.51172-2.13574a2.0886,2.0886,0,0,0-.88281-.89258,2.58667,2.58667,0,0,0-1.21778-.293,2.45918,2.45918,0,0,0-1.76367.68067,2.80136,2.80136,0,0,0-.77051,1.99707h4.91407A2.84085,2.84085,0,0,0,659.6001,170.05078Z"/><path d="M665.21436,168.21484a3.17026,3.17026,0,0,1,1.73535-.46093v1.44824h-.3916a2.64019,2.64019,0,0,0-1.76367.57812,2.36651,2.36651,0,0,0-.68653,1.90918V175.917h-1.27344v-8.03125h1.27344v1.624A2.90841,2.90841,0,0,1,665.21436,168.21484Z"/></svg>